<?xml version="1.0" standalone="no"?>
<!DOCTYPE svg PUBLIC "-//W3C//DTD SVG 1.1//EN" "http://www.w3.org/Graphics/SVG/1.1/DTD/svg11.dtd" >
<svg xmlns="http://www.w3.org/2000/svg">
<metadata>Generated by IcoMoon</metadata>
<defs>
<font id="B2B" horiz-adv-x="1024">
<font-face units-per-em="1024" ascent="960" descent="-64" />
<missing-glyph horiz-adv-x="1024" />
<glyph unicode="&#x20;" horiz-adv-x="512" d="" />
<glyph unicode="&#xe607;" glyph-name="search" d="M381.598 314.853c145.501 0 263.55 118.048 263.55 263.55s-118.048 263.55-263.55 263.55-263.55-118.048-263.55-263.55 118.048-263.55 263.55-263.55zM732.997 314.853l291.003-291.003-87.85-87.85-291.003 291.003v46.67l-16.472 16.472c-65.887-57.651-153.737-90.595-247.078-90.595-211.389 0-381.598 167.464-381.598 378.853s170.209 381.598 381.598 381.598 378.853-170.209 378.853-381.598c0-93.34-32.944-181.19-90.595-247.078l16.472-16.472h46.67z" />
<glyph unicode="&#xe900;" glyph-name="account" d="M512 77.822c127.399 0 240.376 67.305 307.681 165.859-2.404 100.958-206.723 158.648-307.681 158.648-103.361 0-305.277-57.69-307.681-158.648 67.305-98.554 180.282-165.859 307.681-165.859zM512 806.16c-84.131 0-153.84-69.709-153.84-153.84s69.709-153.84 153.84-153.84 153.84 69.709 153.84 153.84-69.709 153.84-153.84 153.84zM512 960c283.643 0 512-228.357 512-512s-228.357-512-512-512-512 228.357-512 512 228.357 512 512 512z" />
<glyph unicode="&#xe901;" glyph-name="up" d="M512 764l512-512-120-120-392 392-392-392-120 120z" />
<glyph unicode="&#xe902;" glyph-name="down" d="M904 764l120-120-512-512-512 512 120 120 392-392z" />
<glyph unicode="&#xe903;" glyph-name="left" d="M828 840l-392-392 392-392-120-120-512 512 512 512z" />
<glyph unicode="&#xe904;" glyph-name="right" d="M316 960l512-512-512-512-120 120 392 392-392 392z" />
<glyph unicode="&#xe905;" glyph-name="location" d="M512 474.441c69.709 0 127.399 57.69 127.399 127.399s-57.69 127.399-127.399 127.399-127.399-57.69-127.399-127.399 57.69-127.399 127.399-127.399zM512 960c199.512 0 358.16-158.648 358.16-358.16 0-269.221-358.16-665.84-358.16-665.84s-358.16 396.62-358.16 665.84c0 199.512 158.648 358.16 358.16 358.16z" />
<glyph unicode="&#xe906;" glyph-name="cart" d="M820.159 141.040c55.157 0 100.721-47.963 100.721-103.119s-45.564-100.721-100.721-100.721-103.119 45.564-103.119 100.721 47.963 103.119 103.119 103.119zM0 958.801h167.869l47.963-100.721h757.808c28.778 0 50.361-23.981 50.361-52.759 0-9.593-2.398-16.787-7.194-23.981l-182.258-330.941c-16.787-31.176-50.361-52.759-88.731-52.759h-381.302l-45.564-83.934-2.398-7.194c0-7.194 4.796-11.991 11.991-11.991h592.337v-103.119h-613.92c-55.157 0-100.721 47.963-100.721 103.119 0 16.787 4.796 33.574 11.991 47.963l69.546 127.101-184.656 388.496h-103.119v100.721zM306.96 141.040c55.157 0 103.119-47.963 103.119-103.119s-47.963-100.721-103.119-100.721-100.721 45.564-100.721 100.721 45.564 103.119 100.721 103.119z" />
<glyph unicode="&#xe907;" glyph-name="list" d="M370.78 964.32h887.1v-294.545h-887.1v294.545zM370.78-68.32v294.545h887.1v-294.545h-887.1zM370.78 298.995v298.011h887.1v-298.011h-887.1zM0 669.775v294.545h298.011v-294.545h-298.011zM0-68.32v294.545h298.011v-294.545h-298.011zM0 298.995v298.011h298.011v-298.011h-298.011z" />
<glyph unicode="&#xe908;" glyph-name="grid" d="M766.503-64v257.497h257.497v-257.497h-257.497zM766.503 319.251v257.497h257.497v-257.497h-257.497zM383.251 702.503v257.497h257.497v-257.497h-257.497zM766.503 960h257.497v-257.497h-257.497v257.497zM383.251 319.251v257.497h257.497v-257.497h-257.497zM0 319.251v257.497h257.497v-257.497h-257.497zM0-64v257.497h257.497v-257.497h-257.497zM383.251-64v257.497h257.497v-257.497h-257.497zM0 702.503v257.497h257.497v-257.497h-257.497z" />
<glyph unicode="&#xe909;" glyph-name="hamburger" d="M0 755.681h1024v-103.361h-1024v103.361zM0 498.479h1024v-103.361h-1024v103.361zM0 241.277h1024v-100.958h-1024v100.958z" />
<glyph unicode="&#xe90a;" glyph-name="close" d="M1024 856.913l-408.913-408.913 408.913-408.913-103.087-103.087-408.913 408.913-408.913-408.913-103.087 103.087 408.913 408.913-408.913 408.913 103.087 103.087 408.913-408.913 408.913 408.913z" />
<glyph unicode="&#xe90b;" glyph-name="star-full" d="M512 153.54l-317.296-192.3 84.131 360.563-278.836 242.779 367.775 31.249 144.225 338.93 144.225-338.93 367.775-31.249-278.836-242.779 84.131-360.563z" />
<glyph unicode="&#xe90c;" glyph-name="star-empty" d="M512.001 247.285l192.3-115.38-50.479 218.742 170.667 149.033-225.953 19.23-86.535 206.723-86.535-206.723-225.953-19.23 170.667-149.033-50.479-218.742zM1024.001 564.581l-278.836-242.779 84.131-360.563-317.296 192.3-317.296-192.3 84.131 360.563-278.836 242.779 367.775 31.249 144.225 338.93 144.225-338.93z" />
<glyph unicode="&#xe90d;" glyph-name="star-half" d="M512 247.286l192.3-115.38-50.479 218.742 170.667 149.033-225.953 19.23-86.535 206.723v-478.347zM1024 564.582l-278.836-242.779 84.131-360.563-317.296 192.3-317.296-192.3 84.131 360.563-278.836 242.779 367.775 31.249 144.225 338.93 144.225-338.93z" />
<glyph unicode="&#xe90e;" glyph-name="cancel" d="M769.202 262.911l-185.089 185.089 185.089 185.089-72.113 72.113-185.089-185.089-185.089 185.089-72.113-72.113 185.089-185.089-185.089-185.089 72.113-72.113 185.089 185.089 185.089-185.089zM512 960c283.643 0 512-228.357 512-512s-228.357-512-512-512-512 228.357-512 512 228.357 512 512 512z" />
<glyph unicode="&#xe90f;" glyph-name="home" d="M408.639 11.717h-254.797v411.041h-153.84l512 461.521 512-461.521h-153.84v-411.041h-254.797v307.681h-206.723v-307.681z" />
<glyph unicode="&#xe910;" glyph-name="heart" d="M512-21.934l-74.516 67.305c-264.413 240.376-437.484 396.62-437.484 591.324 0 158.648 122.592 281.239 281.239 281.239 88.939 0 175.474-43.268 230.761-108.169 55.286 64.901 141.822 108.169 230.761 108.169 158.648 0 281.239-122.592 281.239-281.239 0-194.704-173.070-353.352-437.484-593.728z" />
<glyph unicode="&#xe911;" glyph-name="stop" d="M0 960h1024v-1024h-1024v1024z" />
<glyph unicode="&#xe912;" glyph-name="check" d="M324.949 221.355l617.131 617.131 81.92-81.92-699.051-699.051-324.949 324.949 81.92 81.92z" />
<glyph unicode="&#xe913;" glyph-name="edit" d="M1008 730.667l-104-104-213.333 213.333 104 104c21.333 21.333 58.667 21.333 80 0l133.333-133.333c21.333-21.333 21.333-58.667 0-80zM0 149.333l629.333 629.333 213.333-213.333-629.333-629.333h-213.333v213.333z" />
<glyph unicode="&#xe914;" glyph-name="delete" d="M909.334 904v-114.667h-794.667v114.667h197.333l58.667 56h282.667l58.667-56h197.333zM170.668 50.667v682.667h682.667v-682.667c0-61.333-53.333-114.667-114.667-114.667h-453.333c-61.333 0-114.667 53.333-114.667 114.667z" />
<glyph unicode="&#xe915;" glyph-name="view" d="M512 587.438c76.255 0 139.438-63.183 139.438-139.438s-63.183-139.438-139.438-139.438-139.438 63.183-139.438 139.438 63.183 139.438 139.438 139.438zM512 214.877c128.545 0 233.123 104.579 233.123 233.123s-104.579 233.123-233.123 233.123-233.123-104.579-233.123-233.123 104.579-233.123 233.123-233.123zM512 796.596c233.123 0 431.387-143.796 512-348.596-80.613-204.8-278.877-348.596-512-348.596s-431.387 143.796-512 348.596c80.613 204.8 278.877 348.596 512 348.596z" />
<glyph unicode="&#xe916;" glyph-name="refresh" d="M233.123 448h139.438l-185.192-185.192-187.37 185.192h139.438c0 204.8 167.762 372.562 372.562 372.562 71.898 0 141.617-21.787 198.264-58.826l-67.54-67.54c-39.217 21.787-82.791 32.681-130.723 32.681-154.689 0-278.877-124.187-278.877-278.877zM836.63 633.192l187.37-185.192h-139.438c0-204.8-167.762-372.562-372.562-372.562-71.898 0-141.617 21.787-198.264 58.826l67.54 67.54c39.217-21.787 82.791-32.681 130.723-32.681 154.689 0 278.877 124.187 278.877 278.877h-139.438z" />
<glyph unicode="&#xe917;" glyph-name="settings" d="M512 267.718c98.554 0 180.282 81.728 180.282 180.282s-81.728 180.282-180.282 180.282-180.282-81.728-180.282-180.282 81.728-180.282 180.282-180.282zM894.197 397.521l108.169-84.131c9.615-7.211 12.019-21.634 4.808-33.653l-103.361-177.878c-7.211-12.019-19.23-14.423-31.249-9.615l-127.399 50.479c-26.441-19.23-55.286-38.46-86.535-50.479l-19.23-134.61c-2.404-12.019-12.019-21.634-24.038-21.634h-206.723c-12.019 0-21.634 9.615-24.038 21.634l-19.23 134.61c-31.249 12.019-60.094 28.845-86.535 50.479l-127.399-50.479c-12.019-4.808-24.038-2.404-31.249 9.615l-103.361 177.878c-7.211 12.019-4.808 26.441 4.808 33.653l108.169 84.131c-2.404 16.826-2.404 33.653-2.404 50.479s0 33.653 2.404 50.479l-108.169 84.131c-9.615 7.211-12.019 21.634-4.808 33.653l103.361 177.878c7.211 12.019 19.23 14.423 31.249 9.615l127.399-50.479c26.441 19.23 55.286 38.46 86.535 50.479l19.23 134.61c2.404 12.019 12.019 21.634 24.038 21.634h206.723c12.019 0 21.634-9.615 24.038-21.634l19.23-134.61c31.249-12.019 60.094-28.845 86.535-50.479l127.399 50.479c12.019 4.808 24.038 2.404 31.249-9.615l103.361-177.878c7.211-12.019 4.808-26.441-4.808-33.653l-108.169-84.131c2.404-16.826 2.404-33.653 2.404-50.479s0-33.653-2.404-50.479z" />
<glyph unicode="&#xe918;" glyph-name="Clock" d="M512 32c189.714 0 340.571 153.143 340.571 342.857s-150.857 340.571-340.571 340.571-340.571-150.857-340.571-340.571 150.857-342.857 340.571-342.857zM854.857 646.857c59.429-75.429 96-169.143 96-272 0-242.286-196.571-438.857-438.857-438.857s-438.857 196.571-438.857 438.857 196.571 438.857 438.857 438.857c102.857 0 198.857-38.857 274.286-98.286l68.571 70.857c25.143-20.571 48-43.429 68.571-68.571zM464 324.571v292.571h96v-292.571h-96zM658.286 960v-98.286h-292.571v98.286h292.571z" />
<glyph unicode="&#xe919;" glyph-name="sort" d="M384 832l170-170h-128v-300h-84v300h-128zM682 234h128l-170-170-170 170h128v300h84v-300z" />
<glyph unicode="&#xe91a;" glyph-name="previous" d="M443.733 448l226.133 226.133c17.067 17.067 17.067 42.667 0 59.733s-42.667 17.067-59.733 0l-256-256c-17.067-17.067-17.067-42.667 0-59.733l256-256c8.533-8.533 21.333-12.8 29.867-12.8s21.333 4.267 29.867 12.8c17.067 17.067 17.067 42.667 0 59.733l-226.133 226.133z" />
<glyph unicode="&#xe91b;" glyph-name="next" d="M669.867 477.867l-256 256c-17.067 17.067-42.667 17.067-59.733 0s-17.067-42.667 0-59.733l226.133-226.133-226.133-226.133c-17.067-17.067-17.067-42.667 0-59.733 8.533-8.533 17.067-12.8 29.867-12.8s21.333 4.267 29.867 12.8l256 256c17.067 17.067 17.067 42.667 0 59.733z" />
<glyph unicode="&#xe91c;" glyph-name="first" d="M315.733 448l183.467 183.467c17.067 17.067 17.067 42.667 0 59.733s-42.667 17.067-59.733 0l-213.333-213.333c-17.067-17.067-17.067-42.667 0-59.733l213.333-213.333c8.533-8.533 21.333-12.8 29.867-12.8s21.333 4.267 29.867 12.8c17.067 17.067 17.067 42.667 0 59.733l-183.467 183.467zM614.4 448l183.467 183.467c17.067 17.067 17.067 42.667 0 59.733s-42.667 17.067-59.733 0l-213.333-213.333c-17.067-17.067-17.067-42.667 0-59.733l213.333-213.333c8.533-8.533 21.333-12.8 29.867-12.8s21.333 4.267 29.867 12.8c17.067 17.067 17.067 42.667 0 59.733l-183.467 183.467z" />
<glyph unicode="&#xe91d;" glyph-name="last" d="M797.867 477.867l-213.333 213.333c-17.067 17.067-42.667 17.067-59.733 0s-17.067-42.667 0-59.733l183.467-183.467-183.467-183.467c-17.067-17.067-17.067-42.667 0-59.733 8.533-8.533 21.333-12.8 29.867-12.8s21.333 4.267 29.867 12.8l213.333 213.333c17.067 17.067 17.067 42.667 0 59.733zM499.2 477.867l-213.333 213.333c-17.067 17.067-42.667 17.067-59.733 0s-17.067-42.667 0-59.733l183.467-183.467-183.467-183.467c-17.067-17.067-17.067-42.667 0-59.733 8.533-8.533 17.067-12.8 29.867-12.8s21.333 4.267 29.867 12.8l213.333 213.333c17.067 17.067 17.067 42.667 0 59.733z" />
<glyph unicode="&#xe91e;" glyph-name="envelop" d="M928 864h-832c-52.8 0-96-43.2-96-96v-640c0-52.8 43.2-96 96-96h832c52.8 0 96 43.2 96 96v640c0 52.8-43.2 96-96 96zM398.74 441.628l-270.74-210.892v501.642l270.74-290.75zM176.38 736h671.24l-335.62-252-335.62 252zM409.288 430.302l102.712-110.302 102.71 110.302 210.554-270.302h-626.528l210.552 270.302zM625.26 441.628l270.74 290.75v-501.642l-270.74 210.892z" />
<glyph unicode="&#xe91f;" glyph-name="account-dashboard" d="M935.936 910.336h-847.872c-21.208 0-38.4-17.192-38.4-38.4v0-847.872c0-21.208 17.192-38.4 38.4-38.4v0h847.872c21.208 0 38.4 17.192 38.4 38.4v0 847.872c0 21.208-17.192 38.4-38.4 38.4v0zM924.16 70.4c0-14.138-11.462-25.6-25.6-25.6v0h-770.56c-14.138 0-25.6 11.462-25.6 25.6v0 761.6c0 14.138 11.462 25.6 25.6 25.6v0h770.56c14.138 0 25.6-11.462 25.6-25.6v0zM716.8 857.088v-509.312h-46.464v509.312h46.464zM956.416 324.608h-885.12v46.464h885.12v-46.464zM580.509 771.968l-198.977-241.894-35.884 29.517 198.977 241.894 35.884-29.517zM340.882 601.958l-130.429-158.56-35.884 29.517 130.429 158.56 35.884-29.517zM372.776 517.434l-93.416 76.842 29.517 35.884 93.416-76.842-29.517-35.884zM143.616 252.16v-132.992h132.992v132.992zM249.984 145.792h-79.744v79.744h79.744zM328.064 252.16h120.832v-36.096h-120.832v36.096zM328.064 163.84h120.832v-36.096h-120.832v36.096zM551.424 252.16v-132.992h132.992v132.992zM657.792 145.792h-79.744v79.744h79.744zM735.872 252.16h120.832v-36.096h-120.832v36.096zM735.872 163.84h120.832v-36.096h-120.832v36.096z" />
<glyph unicode="&#xe920;" glyph-name="my-orders" d="M894.080 446.464l-67.584 274.944-308.48 68.992c-20.352 7.296-30.464 7.040-41.472-4.992l-385.536-419.072c-4.815-5.26-7.766-12.297-7.766-20.023 0-8.558 3.62-16.271 9.413-21.69l0.017-0.016 372.864-340.864c5.26-4.815 12.297-7.766 20.023-7.766 8.558 0 16.271 3.62 21.69 9.413l0.016 0.017 385.536 419.2c11.008 11.904 3.2 26.368 1.28 41.856zM504.96 74.624c-9.216-9.984-31.744-4.48-40.832 3.84l-279.552 255.232c-4.208 4.234-6.81 10.069-6.81 16.512s2.601 12.278 6.811 16.513l-0.001-0.001 316.416 343.936c9.088 9.856 17.024 10.368 32.896 5.248l230.4-55.552 51.968-201.984c2.719-4.231 4.334-9.395 4.334-14.936 0-6.978-2.562-13.358-6.796-18.251l0.030 0.035zM787.968 824.064l-295.296 60.8c-20.352 7.296-30.592 7.040-41.6-4.864l-406.656-443.264c1.024-17.408 6.912-46.464 17.92-55.296l412.288 448c9.472 10.24 5.376 10.496 22.912 4.224l320-68.352zM661.664 591.109c25.96-19.23 31.415-55.864 12.185-81.824s-55.864-31.415-81.824-12.185c-25.96 19.23-31.415 55.864-12.185 81.824s55.864 31.415 81.824 12.185z" />
<glyph unicode="&#xe921;" glyph-name="my-profile" d="M512 854.784c-0.038 0-0.083 0-0.128 0-235.759 0-426.88-191.121-426.88-426.88s191.121-426.88 426.88-426.88c235.759 0 426.88 191.121 426.88 426.88v0c-0.073 235.685-191.077 426.734-426.738 426.88h-0.014zM512 79.488c-0.076 0-0.166 0-0.256 0-192.425 0-348.416 155.991-348.416 348.416s155.991 348.416 348.416 348.416c192.425 0 348.416-155.991 348.416-348.416v0c0-192.335-155.845-348.27-348.146-348.416h-0.014zM270.208 171.904c52.877 78.27 141.276 129.050 241.536 129.050s188.659-50.78 240.882-128.024l0.654-1.026h78.72c-60.523 118.049-180.776 197.772-319.795 199.294l-0.205 0.002c-139.508-1.283-260.084-81.064-319.815-197.257l-0.953-2.039zM512 713.984c-88.507 0-160.256-71.749-160.256-160.256s71.749-160.256 160.256-160.256c88.507 0 160.256 71.749 160.256 160.256v0c-0.073 88.478-71.778 160.183-160.249 160.256h-0.007zM512.896 471.68c-0.038 0-0.083 0-0.128 0-45.314 0-82.048 36.734-82.048 82.048s36.734 82.048 82.048 82.048c45.314 0 82.048-36.734 82.048-82.048 0-0.045 0-0.090 0-0.135v0.007c-0.073-45.214-36.706-81.847-81.913-81.92h-0.007z" />
<glyph unicode="&#xe922;" d="M768.896 484.736l-167.296-166.016c-2.022-1.946-4.775-3.145-7.808-3.145s-5.786 1.199-7.812 3.149l-65.66 62.845c-2.001 1.939-4.733 3.133-7.744 3.133s-5.743-1.195-7.747-3.136l0.003 0.003-28.8-28.032c-2.085-2.006-3.379-4.82-3.379-7.936s1.295-5.93 3.376-7.933l0.004-0.003 111.488-111.488c1.985-2.078 4.778-3.37 7.872-3.37s5.887 1.292 7.868 3.365l0.004 0.004 209.408 209.024c1.821 1.958 2.939 4.593 2.939 7.488s-1.118 5.53-2.945 7.495l0.006-0.007-27.904 33.664c-2.071 2.302-5.060 3.744-8.386 3.744-2.879 0-5.506-1.080-7.497-2.857l0.011 0.010z" />
<glyph unicode="&#xe923;" d="M459.264 105.6c-0.219-0.004-0.478-0.006-0.737-0.006-10.246 0-19.645 3.626-26.984 9.665l0.073-0.059-279.424 254.72c-4.201 4.213-6.799 10.027-6.799 16.448s2.598 12.235 6.799 16.449l-0.001-0.001 316.416 344.064c8.96 9.856 17.024 10.368 32.768 5.248l230.4-55.552 12.8-24.704c32.343-6.015 61.008-14.882 88.144-26.616l-2.64 1.016-36.48 111.36-308.48 68.992c-20.48 7.296-30.592 7.040-41.6-4.992l-385.024-419.072c-4.811-5.241-7.759-12.259-7.759-19.966 0-8.599 3.671-16.341 9.531-21.744l0.020-0.019 355.072-324.736c16.346 20.213 30.968 43.023 42.953 67.366l0.951 2.138z" />
<glyph unicode="&#xe924;" d="M644.224 658.688c-163.653 0-296.32-132.667-296.32-296.32s132.667-296.32 296.32-296.32c163.653 0 296.32 132.667 296.32 296.32v0c0 0.038 0 0.083 0 0.128 0 163.582-132.61 296.192-296.192 296.192-0.045 0-0.090 0-0.135 0h0.007zM644.224 121.088c-133.538 0-241.791 108.254-241.791 241.792s108.254 241.792 241.792 241.792c133.538 0 241.792-108.254 241.792-241.792 0-0.18 0-0.36-0.001-0.54v0.028c0-133.538-108.254-241.792-241.792-241.792v0z" />
<glyph unicode="&#xe925;" glyph-name="product-lists" d="M206.848-18.688h623.104c26.718 0.072 48.367 21.676 48.512 48.37v826.894c-0.145 26.708-21.794 48.312-48.505 48.384h-623.111c-26.718-0.072-48.367-21.676-48.512-48.37v-826.894c0.145-26.708 21.794-48.312 48.505-48.384h0.007zM221.696 798.080c0 17.814 14.442 32.256 32.256 32.256v0h525.952c17.814 0 32.256-14.442 32.256-32.256v0-716.8c0 0 0 0 0 0 0-17.84-14.426-32.311-32.249-32.384h-525.959c-17.83 0.073-32.256 14.544-32.256 32.384 0 0 0 0 0 0v0zM298.752 770.56v-167.040h196.864v166.4zM456.192 636.928h-118.016v100.224h118.016zM550.4 770.56h183.296v-45.312h-183.296v45.312zM550.4 659.584h183.296v-45.312h-183.296v45.312zM298.752 514.56v-167.040h196.864v167.040zM456.192 380.928h-118.016v100.224h118.016zM550.4 514.56h183.296v-45.312h-183.296v45.312zM550.4 403.584h183.296v-45.312h-183.296v45.312zM298.752 271.36v-166.4h196.864v166.4zM456.192 137.728h-118.016v100.224h118.016zM550.4 271.36h183.296v-45.312h-183.296v45.312zM550.4 160.384h183.296v-45.312h-183.296v45.312z" />
<glyph unicode="&#xe926;" d="M512 860.672c-0.038 0-0.083 0-0.128 0-235.759 0-426.88-191.121-426.88-426.88s191.121-426.88 426.88-426.88c235.759 0 426.88 191.121 426.88 426.88v0c-0.073 235.685-191.077 426.734-426.738 426.88h-0.014zM512 85.504c-0.076 0-0.166 0-0.256 0-192.425 0-348.416 155.991-348.416 348.416s155.991 348.416 348.416 348.416c192.425 0 348.416-155.991 348.416-348.416 0-0.045 0-0.090 0-0.135v0.007c0-192.309-155.861-348.215-348.153-348.288h-0.007z" />
<glyph unicode="&#xe927;" d="M512.768 676.096l-43.648-2.944c-5.733-0.407-10.245-5.097-10.368-10.868v-0.012l-6.784-296.32c-0.002-0.077-0.003-0.168-0.003-0.259 0-6.061 4.843-10.992 10.87-11.133h0.013l208.896-93.184c0.114-0.004 0.249-0.007 0.384-0.007 6.080 0 11.008 4.928 11.008 11.008 0 0.002 0 0.005 0 0.007v0l12.8 52.992c0.002 0.078 0.003 0.17 0.003 0.263 0 5.946-4.714 10.79-10.608 11.001l-0.019 0.001-154.368 68.224c-5.913 0.211-10.627 5.056-10.627 11.001 0 0.092 0.001 0.184 0.003 0.276v-0.014l4.48 248.576c0.002 0.087 0.004 0.19 0.004 0.292 0 6.15-4.986 11.136-11.136 11.136-0.317 0-0.63-0.013-0.94-0.039l0.041 0.003z" />
<glyph unicode="&#xe928;" glyph-name="order-templates" d="M729.6 910.336h-591.872c-21.208 0-38.4-17.192-38.4-38.4v0-847.872c0-21.208 17.192-38.4 38.4-38.4v0h65.28c-14.209 8.562-24.216 22.866-26.839 39.618l-0.041 0.318c-0.159 1.705-0.25 3.688-0.25 5.691 0 4.969 0.557 9.807 1.613 14.456l-0.083-0.436c-14.138 0-25.6 11.462-25.6 25.6v0 761.088c0 14.138 11.462 25.6 25.6 25.6v0h514.816c14.138 0 25.6-11.462 25.6-25.6v0-256h50.176v295.936c0 21.208-17.192 38.4-38.4 38.4v0zM221.952 796.16v-208.896h196.864v208.896zM379.392 629.12h-118.016v125.184h118.016zM473.6 796.16h183.296v-56.704h-183.296v56.704zM473.6 657.408h183.296v-56.704h-183.296v56.704zM954.624 29.44v463.872c0 21.208-17.192 38.4-38.4 38.4v0h-655.872c-21.208 0-38.4-17.192-38.4-38.4v0-463.872c0-21.208 17.192-38.4 38.4-38.4v0h655.872c21.208 0 38.4 17.192 38.4 38.4v0zM307.2 41.216c-14.138 0-25.6 11.462-25.6 25.6v0 386.688c0 14.138 11.462 25.6 25.6 25.6v0h568.576c14.138 0 25.6-11.462 25.6-25.6v0-386.688c0-14.138-11.462-25.6-25.6-25.6v0zM624.128 372.224v-231.424h227.328v231.424zM669.696 325.888h136.704v-138.88h-136.704zM555.008 301.824h-212.096v62.848h212.096v-62.848zM555.008 148.096h-212.096v62.848h212.096v-62.848z" />
<glyph unicode="&#xe929;" glyph-name="scan" d="M349.755 504.133c-13.4 0-24.2 10.8-24.2 24.2v44c0 34.2 27.8 61.8 61.8 61.8h77.8c13.4 0 24.2-10.8 24.2-24.2s-10.8-24.2-24.2-24.2h-77.8c-7.4 0-13.4-6-13.4-13.4v-44c0-13.4-10.8-24.2-24.2-24.2zM673.955 504.133c-13.4 0-24.2 10.8-24.2 24.2v44c0 7.4-6 13.4-13.4 13.4h-77.8c-13.4 0-24.2 10.8-24.2 24.2s10.8 24.2 24.2 24.2h77.8c34.2 0 61.8-27.8 61.8-61.8v-44c0-13.4-10.8-24.2-24.2-24.2zM465.155 261.733h-77.8c-34.2 0-61.8 27.8-61.8 61.8v44c0 13.4 10.8 24.2 24.2 24.2s24.2-10.8 24.2-24.2v-44c0-7.4 6-13.4 13.4-13.4h77.8c13.4 0 24.2-10.8 24.2-24.2s-10.8-24.2-24.2-24.2zM636.355 261.533h-77.8c-13.4 0-24.2 10.8-24.2 24.2s10.8 24.2 24.2 24.2h77.8c7.4 0 13.4 6 13.4 13.4v44c0 13.4 10.8 24.2 24.2 24.2s24.2-10.8 24.2-24.2v-44c0-34.2-27.6-61.8-61.8-61.8zM680.355 428.333h-337.2c-10.4 0-19.4 9-19.4 19.4v0c0 10.4 9 19.4 19.4 19.4h337.2c10.4 0 19.4-9 19.4-19.4v0c0.2-10.2-9-19.4-19.4-19.4zM512 874.8c0 0-0.2 0 0 0-236 0-427-191.2-427-427s191-426.8 426.8-426.8 426.8 191.2 426.8 426.8v0c0 235.8-191 426.8-426.6 427v0 0zM512 99.4h-0.2c-192.4 0-348.4 156-348.4 348.4s156 348.4 348.4 348.4 348.4-156 348.4-348.4v0c0-192.2-156-348.2-348.2-348.4v0 0z" />
<glyph unicode="&#xe92a;" glyph-name="voice" d="M512 874.8c0 0-0.2 0 0 0-236 0-427-191.2-427-427s191-426.8 426.8-426.8 426.8 191.2 426.8 426.8v0c0 235.8-191 426.8-426.6 427v0 0zM512 99.4c0 0-0.2 0-0.2 0-192.4 0-348.4 156-348.4 348.4s156 348.4 348.4 348.4c192.4 0 348.4-156 348.4-348.4v0c0-192.2-156-348.2-348.2-348.4v0 0zM665.126 435.163h-1c-11.6-70.2-91-104.8-149.8-104.8-60.2 0-139.4 39-152.4 104.8h-59c0-66.2 85.4-146.2 181.8-164.8v-92.2h59v92.2c105.6 18.6 179.4 98.6 179.4 164.8h-58zM555.8 489.6c0-23-18.6-41.6-41.6-41.6s-41.6 18.6-41.6 41.6v116.4c0 23 18.6 41.6 41.6 41.6s41.6-18.6 41.6-41.6v-116.4zM514.2 706.6c-55.6 0-100.6-45-100.6-100.6v-116.4c0-55.6 45-100.6 100.6-100.6s100.6 45 100.6 100.6v116.4c0 55.6-45 100.6-100.6 100.6v0z" />
<glyph unicode="&#xe92b;" glyph-name="quote" d="M524.902 668.16h-293.683c-7.013 0-12.698 5.685-12.698 12.698v0 152.986c0 7.013 5.685 12.698 12.698 12.698v0h293.683c7.013 0 12.698-5.685 12.698-12.698v-152.986c0-7.013-5.685-12.698-12.698-12.698v0zM243.917 693.76h268.083v127.386h-268.083zM357.581 449.434h-102.4c-6.9 0-12.493 5.593-12.493 12.493v0 102.4c-0.001 0.061-0.002 0.133-0.002 0.205 0 6.9 5.593 12.493 12.493 12.493 0.001 0 0.001 0 0.002 0h102.4c7.013 0 12.698-5.685 12.698-12.698v0-102.4c0 0 0-0.001 0-0.002 0-6.9-5.593-12.493-12.493-12.493-0.072 0-0.144 0.001-0.216 0.002h0.011zM266.24 474.624h77.824v77.824h-77.824zM673.997 471.552h-225.28c-0.483-0.065-1.042-0.102-1.609-0.102-7.013 0-12.698 5.685-12.698 12.698s5.685 12.698 12.698 12.698c0.567 0 1.126-0.037 1.674-0.109l-0.064 0.007h225.28c6.286-0.826 11.088-6.15 11.088-12.595s-4.802-11.769-11.024-12.588l-0.064-0.007zM757.76 524.595h-309.658c-7.013 0-12.698 5.685-12.698 12.698s5.685 12.698 12.698 12.698h309.658c7.013 0 12.698-5.685 12.698-12.698s-5.685-12.698-12.698-12.698v0zM357.581 254.259h-102.4c0 0-0.001 0-0.002 0-6.9 0-12.493 5.593-12.493 12.493 0 0.072 0.001 0.144 0.002 0.216v-0.011 102.4c-0.001 0.061-0.002 0.133-0.002 0.205 0 6.9 5.593 12.493 12.493 12.493 0.001 0 0.001 0 0.002 0h102.4c7.013 0 12.698-5.685 12.698-12.698v0-102.4c0-7.013-5.685-12.698-12.698-12.698v0zM266.24 279.654h77.824v77.824h-77.824zM673.997 276.582h-225.28c-0.483-0.065-1.042-0.102-1.609-0.102-7.013 0-12.698 5.685-12.698 12.698s5.685 12.698 12.698 12.698c0.567 0 1.126-0.037 1.674-0.109l-0.064 0.007h225.28c6.286-0.826 11.088-6.15 11.088-12.595s-4.802-11.769-11.024-12.588l-0.064-0.007zM757.76 329.626h-309.658c-7.013 0-12.698 5.685-12.698 12.698s5.685 12.698 12.698 12.698h309.658c7.013 0 12.698-5.685 12.698-12.698s-5.685-12.698-12.698-12.698v0zM357.581 58.88h-102.4c0 0-0.001 0-0.002 0-6.9 0-12.493 5.593-12.493 12.493 0 0.072 0.001 0.144 0.002 0.216v-0.011 102.4c-0.001 0.061-0.002 0.133-0.002 0.205 0 6.9 5.593 12.493 12.493 12.493 0.001 0 0.001 0 0.002 0h102.4c7.013 0 12.698-5.685 12.698-12.698v0-102.4c0-7.013-5.685-12.698-12.698-12.698v0zM266.24 84.685h77.824v77.824h-77.824zM673.997 81.613h-225.28c-0.061-0.001-0.133-0.002-0.205-0.002-6.9 0-12.493 5.593-12.493 12.493 0 0.001 0 0.001 0 0.002v0c0 7.013 5.685 12.698 12.698 12.698h225.28c0 0 0.001 0 0.002 0 6.9 0 12.493-5.593 12.493-12.493 0-0.072-0.001-0.144-0.002-0.216v0.011c0-6.9-5.593-12.493-12.493-12.493v0zM757.76 134.656h-309.658c-7.013 0-12.698 5.685-12.698 12.698s5.685 12.698 12.698 12.698v0h309.658c7.013 0 12.698-5.685 12.698-12.698s-5.685-12.698-12.698-12.698v0zM842.547-43.52h-693.658c-0.061-0.001-0.133-0.001-0.206-0.001-12.894 0-23.347 10.453-23.347 23.347 0 0.072 0 0.145 0.001 0.217v-0.011 935.117c-0.014 0.306-0.023 0.665-0.023 1.025 0 12.894 10.453 23.347 23.347 23.347 0.080 0 0.16 0 0.24-0.001h693.646c0.061 0.001 0.133 0.001 0.206 0.001 12.894 0 23.347-10.453 23.347-23.347 0-0.072 0-0.145-0.001-0.217v0.011-45.261c0.065-0.658 0.102-1.421 0.102-2.194 0-13.007-10.545-23.552-23.552-23.552s-23.552 10.545-23.552 23.552c0 0.772 0.037 1.536 0.11 2.29l-0.007-0.096v20.48h-646.963v-886.989h646.963v514.458c-0.065 0.658-0.102 1.421-0.102 2.194 0 13.007 10.545 23.552 23.552 23.552s23.552-10.545 23.552-23.552c0-0.772-0.037-1.536-0.11-2.29l0.007 0.096v-537.805c0.014-0.306 0.023-0.665 0.023-1.025 0-12.894-10.453-23.347-23.347-23.347-0.080 0-0.16 0-0.24 0.001h0.012zM602.317 822.579h110.592v-79.462c0.071-2.351 0.111-5.118 0.111-7.894 0-24.033-3.028-47.359-8.724-69.617l0.421 1.939c-6.288-19.777-17.104-36.61-31.273-49.914l-0.062-0.057c-16.368-15.235-36.062-27.137-57.852-34.485l-1.131-0.331-20.48 46.080c19.32 5.229 35.636 16.034 47.591 30.561l0.127 0.159c8.672 13.678 13.82 30.333 13.82 48.191 0 1.49-0.036 2.972-0.107 4.445l0.008-0.208h-53.043zM788.070 822.579h110.592v-79.462c0.079-2.438 0.124-5.305 0.124-8.183 0-23.945-3.108-47.164-8.944-69.275l0.423 1.887c-6.454-19.755-17.319-36.565-31.48-49.916l-0.059-0.055c-16.103-15.107-35.435-26.984-56.83-34.472l-1.129-0.344-22.528 46.080c19.171 5.282 35.343 16.077 47.179 30.556l0.13 0.164c9.394 13.939 14.995 31.111 14.995 49.591 0 0.998-0.016 1.992-0.049 2.982l0.004-0.144h-53.248z" />
<glyph unicode="&#xe92c;" glyph-name="return-webstore" d="M921.6 85.914h-673.178c0 0-0.001 0-0.001 0-9.049 0-16.384 7.335-16.384 16.384 0 0.072 0 0.144 0.001 0.216v-0.011 484.762c0 9.049 7.335 16.384 16.384 16.384v0h673.178c9.049 0 16.384-7.335 16.384-16.384v-484.762c0.001-0.061 0.001-0.133 0.001-0.205 0-9.049-7.335-16.384-16.384-16.384 0 0-0.001 0-0.001 0v0zM266.24 118.886h637.952v451.994h-639.181zM248.422 85.914h-146.022c0 0-0.001 0-0.001 0-9.049 0-16.384 7.335-16.384 16.384 0 0.072 0 0.144 0.001 0.216v-0.011 484.762c0 9.049 7.335 16.384 16.384 16.384v0h147.046c0.061 0.001 0.133 0.001 0.205 0.001 9.049 0 16.384-7.335 16.384-16.384 0 0 0-0.001 0-0.001v0-484.762c0-0.009 0-0.021 0-0.032 0-9.162-7.427-16.589-16.589-16.589-0.36 0-0.718 0.011-1.072 0.034l0.048-0.002zM117.965 118.886h114.074v451.994h-114.074zM102.4 570.88v0zM98.918 570.88h-1.843zM95.027 572.109h-1.843zM89.702 575.795l-1.229 1.229zM97.075 570.88h-1.843zM91.341 574.157l-1.434 1.229zM92.979 573.133h-1.434zM88.269 577.229c-0.019 0.245-0.029 0.531-0.029 0.819s0.011 0.574 0.032 0.857l-0.002-0.038c-0.019-0.245-0.029-0.531-0.029-0.819s0.011-0.574 0.032-0.857l-0.002 0.038zM75.981 777.114h662.733l9.83-44.032h33.792l-14.336 63.078c-1.724 7.378-8.202 12.806-15.964 12.902h-696.331c-0.033 0-0.073 0-0.112 0-5.16 0-9.762-2.385-12.766-6.113l-0.025-0.032c-2.261-2.86-3.627-6.518-3.627-10.495 0-1.215 0.127-2.4 0.37-3.543l-0.020 0.111 13.312-59.802h33.587zM755.917 700.109l-7.373 32.973h-435.814c-0.004 0-0.008 0-0.013 0-6.44 0-12.012-3.716-14.69-9.12l-0.043-0.096-50.586-102.4 10.445-18.227h17.203l47.923 96.461zM999.014 725.299c-3.009 4.615-8.1 7.655-13.908 7.782h-202.771l7.373-32.973h168.755l-47.923-96.461h-99.533l2.867-12.902c0.28-1.119 0.441-2.404 0.441-3.727 0-3.797-1.325-7.284-3.537-10.025l0.024 0.030c-2.942-3.508-7.214-5.816-12.031-6.141l-0.053-0.003h122.88c6.416 0.095 11.952 3.775 14.702 9.122l0.044 0.094 64.307 129.229c0.823 1.914 1.302 4.142 1.302 6.482 0 3.547-1.1 6.837-2.976 9.548l0.037-0.056zM810.803 577.024c2.188 2.711 3.513 6.198 3.513 9.995 0 1.323-0.161 2.608-0.464 3.837l0.023-0.11-2.867 12.902h-552.96l4.915-8.192c1.361-2.355 2.164-5.18 2.164-8.192 0-9.131-7.377-16.538-16.495-16.589h550.088c4.897 0.383 9.172 2.763 12.058 6.317l0.025 0.032zM755.917 700.109h33.792l-7.373 32.973h-33.792l7.373-32.973zM95.232 570.88v0zM93.184 572.928v0zM99.533 570.88v0zM91.546 573.952v0zM89.907 575.386v0zM88.474 577.024v0zM61.44 687.411l-5.734 9.83h3.482l-7.373 32.973h-23.962c-6.103-0.078-11.413-3.4-14.293-8.318l-0.043-0.079c-1.4-2.345-2.227-5.172-2.227-8.192s0.828-5.847 2.268-8.266l-0.041 0.074 73.523-126.566c-0.867 1.349-1.509 2.932-1.83 4.628l-0.013 0.083zM189.235 722.022c-2.997 4.888-8.281 8.117-14.325 8.192h-88.485l7.373-32.973h71.68l54.272-93.594h18.432l9.216 18.227zM234.496 578.662c-1.308 2.3-2.079 5.054-2.079 7.987s0.771 5.687 2.121 8.069l-0.042-0.081 4.506 9.011h-128.205l-49.357 83.763 23.142-103.834c0.334-1.779 0.977-3.361 1.875-4.764l-0.032 0.053c-0.019-0.245-0.029-0.531-0.029-0.819s0.011-0.574 0.032-0.857l-0.002 0.038 1.229-1.229 1.434-1.229h156.467c-0.156-0.005-0.34-0.009-0.524-0.009-4.034 0-7.722 1.476-10.556 3.917l0.021-0.018zM93.798 697.242l-7.373 32.973h-33.792l7.373-32.973h33.792zM238.182 603.648h19.661l-10.65 18.432-9.011-18.432zM262.758 579.072c1.361 2.355 2.164 5.18 2.164 8.192s-0.803 5.837-2.207 8.272l0.043-0.080-4.915 8.192h-20.48l-4.506-9.011c-1.308-2.3-2.079-5.054-2.079-7.987s0.771-5.687 2.121-8.069l-0.042 0.081c2.858-4.805 8.021-7.978 13.925-7.987h0.001c0.419-0.037 0.905-0.058 1.397-0.058 6.207 0 11.627 3.367 14.534 8.375l0.043 0.080zM296.96 264.499h38.912v-118.374h-38.912v118.374zM340.787 264.499h19.456v-118.374h-19.456v118.374zM379.699 264.499h19.456v-118.374h-19.456v118.374zM365.158 264.499h9.83v-118.374h-9.83v118.374zM404.070 264.499h4.915v-118.374h-4.915v118.374zM413.901 264.499h4.915v-118.374h-4.915v118.374zM491.52 264.499h19.456v-118.374h-19.456v118.374zM530.432 264.499h19.456v-118.374h-19.456v118.374zM515.891 264.499h9.83v-118.374h-9.83v118.374zM433.357 264.499h9.83v-118.374h-9.83v118.374zM476.774 264.499h9.83v-118.374h-9.83v118.374zM423.526 264.499h4.915v-118.374h-4.915v118.374zM447.693 264.499h4.915v-118.374h-4.915v118.374zM457.318 264.499h4.915v-118.374h-4.915v118.374zM467.149 264.499h4.915v-118.374h-4.915v118.374zM312.73 716.493h672.154l-21.299-42.189h-672.358l21.504 42.189zM214.426 453.53l-13.107 8.602-13.312-8.602-13.517 7.782-14.746-7.782-10.854 7.782-14.336-7.782v133.734h79.872v-133.734zM1012.531 149.606c-7.168 9.011-13.517 17.203-20.48 24.986-40.157 46.326-94.393 79.487-156.011 92.841l-1.89 0.343c-29.065 6.641-62.442 10.448-96.708 10.448-0.561 0-1.122-0.001-1.682-0.003h-3.395v-102.4l-177.357 176.947 177.152 177.152c0-1.434 0-3.072 0-4.71 0-30.515 0-61.44 0-91.955 0-3.277 0-4.506 4.301-4.915 60.164-8.125 113.662-31.821 157.739-66.86l-0.658 0.505c39.634-32.466 70.876-73.697 90.97-120.821l0.78-2.059c10.618-23.921 19.856-52.118 26.275-81.37l0.554-3.007s0.205-2.867 0.41-5.12z" />
<glyph unicode="&#xe92d;" glyph-name="return-arrow" d="M1002.081 119.68c-8.791 0-16.852 5.029-20.306 13.282v0c-2.534 5.988-65.871 148.057-302.678 176.194-49.327 5.988-108.404 9.059-180.148 9.597v-177.077c0-8.176-4.414-15.585-11.67-19.5-7.217-3.762-15.854-3.224-22.571 1.267l-454.958 306.248c-6.142 4.107-9.75 11.017-9.75 18.272 0 7.332 3.608 14.011 9.75 18.31l455.149 306.286c6.718 4.645 15.278 4.952 22.571 1.113 7.293-3.915 11.631-11.324 11.631-19.27v-164.794c98.961-12.898 524.898-89.441 524.898-448.125 0-10.403-7.332-19.5-17.619-21.573-1.42-0.23-2.917-0.23-4.299-0.23z" />
<glyph unicode="&#xe92e;" glyph-name="calendar" d="M218.88 960h149.76v-218.88h-149.76v218.88zM220.16 448h147.2v-145.92h-147.2v145.92zM439.040 448h147.2v-145.92h-147.2v145.92zM659.2 448h147.2v-145.92h-147.2v145.92zM220.16 229.12h147.2v-145.92h-147.2v145.92zM439.040 229.12h147.2v-145.92h-147.2v145.92zM659.2 229.12h147.2v-145.92h-147.2v145.92zM659.2 960h149.76v-218.88h-149.76v218.88zM879.36 888.32v-221.44h-293.12v221.44h-147.2v-221.44h-293.12v221.44h-145.92v-952.32h1024v952.32h-144.64zM952.32 12.8h-879.36v508.16h879.36v-508.16z" />
<glyph unicode="&#xe92f;" glyph-name="check-circle" horiz-adv-x="878" d="M733.714 540.572q0 16-10.286 26.286l-52 51.43q-10.856 10.856-25.714 10.856t-25.714-10.856l-233.144-232.572-129.144 129.144q-10.856 10.856-25.714 10.856t-25.714-10.856l-52-51.428q-10.286-10.286-10.286-26.286 0-15.428 10.286-25.714l206.856-206.856q10.856-10.856 25.714-10.856 15.428 0 26.286 10.856l310.286 310.286q10.286 10.286 10.286 25.714zM877.714 448q0-119.428-58.856-220.286t-159.714-159.714-220.286-58.856-220.286 58.856-159.714 159.714-58.856 220.286 58.856 220.286 159.714 159.714 220.286 58.856 220.286-58.856 159.714-159.714 58.856-220.286z" />
<glyph unicode="&#xe930;" glyph-name="voucher" d="M1009.024 395.008c8.32 0 14.976 4.992 14.976 11.008v99.328c0 6.144-6.656 11.008-14.976 11.008h-101.248l-30.464 68.608c-2.432 5.504-10.624 7.424-18.176 3.968-52.736-23.424-109.696-10.88-126.976 28.032s11.392 89.728 64.128 113.152c7.552 3.328 11.648 10.624 9.216 16.128l-40.448 90.88c-2.432 5.504-10.624 7.424-18.176 3.968l-737.024-328.192c-7.552-3.328-11.648-10.624-9.216-16.128l40.448-90.752c2.432-5.504 10.624-7.424 18.176-3.968 52.736 23.424 109.696 10.88 126.976-28.032s-11.392-89.728-64.128-113.152c-7.552-3.328-11.648-10.624-9.216-16.128l40.448-90.752c2.432-5.504 10.624-7.424 18.176-3.968l15.744 7.040v-26.88c0-6.144 6.656-11.008 14.976-11.008h806.784c8.32 0 14.976 4.992 14.976 11.008v99.328c0 6.144-6.656 11.008-14.976 11.008-57.6 0-104.576 34.688-104.576 77.312 0 42.496 46.976 77.184 104.576 77.184zM187.264 505.344v-87.808c-30.208 21.632-76.928 26.24-123.136 10.112l-31.616 71.168 163.84 72.96 22.4-50.432c1.152-2.432 3.456-4.096 6.272-4.992h8.576c1.152 0.256 2.304 0.384 3.328 0.896 7.552 3.328 11.648 10.624 9.216 16.128l-22.4 50.432 518.656 230.912 31.616-71.168c-59.136-32.384-89.856-92.16-68.992-138.88 20.736-46.592 85.76-63.872 149.376-41.6l20.864-46.848h-260.096c-0.256 0.768-0.512 1.536-0.896 2.176-13.056 29.44-39.936 40.32-89.6 36.224-36.736-2.816-48.896-0.128-54.272 11.904-4.48 10.112-1.024 24.448 22.272 34.816 22.4 9.984 39.552 9.344 46.848 9.088 2.304-0.128 4.608 0.768 6.272 2.304 1.792 1.536 2.688 3.584 2.688 5.632l-0.128 24.832c0 3.456-2.816 6.144-6.528 6.272-15.872 0.768-32-1.92-49.152-8.064l-11.008 24.576c-1.536 3.456-6.016 4.864-10.112 3.072l-22.656-10.112c-4.096-1.792-6.016-6.144-4.48-9.6l11.904-26.624c-30.848-21.76-42.752-52.864-30.336-80.512 5.76-12.928 14.848-21.12 26.112-25.984h-218.624c-3.072-0.768-6.016-0.768-8.576 0h-22.656c-8.192 0.128-14.976-4.736-14.976-10.88zM187.264 229.376v-48.256l-11.136-4.992-31.616 71.168c59.136 32.384 89.856 92.16 68.992 138.88-1.28 2.944-2.816 5.888-4.608 8.576 54.528-2.56 97.792-36.096 97.792-77.056 0-42.624-46.976-77.312-104.576-77.312-8.064 0-14.848-4.992-14.848-11.008zM994.176 218.88v-77.824h-567.808v55.168c0 6.144-6.656 11.008-14.976 11.008s-14.976-4.992-14.976-11.008v-55.168h-179.2v77.824c49.408 4.096 90.752 28.032 109.184 60.672 6.528 11.52 10.24 24.192 10.368 37.376 0 0.256 0 0.384 0 0.64 0 21.888-9.728 42.112-25.984 58.496-10.496 10.624-23.936 19.584-39.168 26.496-16.256 7.296-34.688 12.16-54.4 13.696v77.824h179.328v-55.168c0-6.144 6.656-11.008 14.976-11.008s14.976 4.992 14.976 11.008v55.168h567.808v-77.824c-67.2-5.504-119.552-47.744-119.552-98.688s52.224-93.184 119.424-98.688zM411.392 369.152c-8.32 0-14.976-4.992-14.976-11.008v-80.896c0-1.024 0.256-1.92 0.512-2.816 1.664-4.736 7.424-8.32 14.464-8.32 8.32 0 14.976 4.992 14.976 11.008v80.896c0 6.272-6.656 11.136-14.976 11.136zM689.664 345.216c-19.84 7.040-31.488 12.544-37.888 18.432-4.864 4.352-6.784 8.96-6.784 14.592 0 2.432 0.512 4.864 1.536 7.168 3.328 8.32 13.184 15.616 33.024 15.616 0.64 0 1.152 0 1.792-0.128 17.024-0.256 29.568-4.096 37.504-7.424 3.072-1.28 5.504-2.432 7.168-3.328 2.048-1.024 4.48-1.152 6.656-0.512s3.968 2.176 4.736 4.096l4.352 9.984 5.632 12.8c1.408 3.2-0.128 6.656-3.456 8.448-1.408 0.768-3.072 1.28-4.48 1.92-13.056 5.888-27.264 9.472-43.648 10.624v27.008c0 3.84-3.584 6.912-8.064 6.912h-24.832c-4.48 0-8.064-3.072-8.064-6.912v-29.184c-36.992-7.424-60.544-30.848-60.544-61.184 0-3.968 0.512-7.68 1.28-11.264 1.664-7.552 4.864-14.208 9.472-19.968 12.928-16.512 36.096-26.624 60.544-34.816 28.672-9.984 40.32-19.968 40.32-34.688 0-16.128-16-26.88-39.68-26.88-18.688 0-38.144 4.992-53.248 13.696-2.048 1.152-4.608 1.536-6.912 0.768-2.304-0.64-4.224-2.176-4.992-4.224l-9.6-23.168c-1.152-2.944 0-6.144 2.944-7.936 13.952-8.576 36.096-14.72 57.984-16.128v-28.288c0-3.84 3.584-6.912 8.064-6.912h25.216c4.48 0 8.064 3.072 8.064 6.912v30.208c38.144 7.68 63.36 32.896 63.36 64.256-0.384 32.256-20.48 52.992-67.456 69.504z" />
<glyph unicode="&#xe931;" glyph-name="compare" d="M425.728 862.848c-77.44 0-152.064 0.384-226.816-0.128-56.704-0.384-96.128-39.68-96.256-96.384-0.384-212.864-0.384-425.6 0-638.336 0.128-57.856 39.808-96.64 98.304-97.024 65.664-0.384 131.456-0.128 197.12-0.128 8.704 0 17.536 0 29.056 0 0-32 0-61.056 0-90.624 31.232 0 59.648 0 88.192 0 0 338.56 0 675.584 0 1012.992-30.336 0-58.624 0-89.6 0 0-30.72 0-59.904 0-90.368zM425.216 170.24c-75.648 0-149.888 0-229.888 0 76.8 92.16 151.424 181.888 229.888 276.096 0-95.872 0-185.344 0-276.096zM934.4 749.696c0 78.208-34.56 113.152-111.872 113.152-48.512 0-96.896 0-145.408 0-21.12 0-42.24 0-64.768 0 0-31.616 0-60.672 0-94.080 77.568 0 152.704 0 227.456 0 0-198.912 0-395.392 0-596.736-76.8 92.032-150.528 180.352-226.816 271.872 0-140.672 0-276.224 0-412.928 74.368 0 146.56-0.128 218.88 0 64.256 0.128 102.4 38.272 102.656 102.656 0.128 38.656 0 77.184 0 115.84-0.128 166.784-0.128 333.44-0.128 500.224z" />
<glyph unicode="&#xe932;" glyph-name="File-xls" d="M546.56 960h-405.76v-1022.72h769.28v657.92l-363.52 364.8zM541.44 919.040l326.4-326.4h-326.4v326.4zM878.080-30.72h-705.28v960h336.64v-367.36h368.64v-592.64zM431.36 295.68h-47.36l-40.96-65.28-40.96 65.28h-47.36l62.72-97.28-69.12-106.24h48.64l46.080 70.4 44.8-70.4h49.92l-70.4 104.96zM500.48 294.4h-40.96v-202.24h143.36v34.56h-102.4zM737.28 131.84c-6.4-5.12-16.64-8.96-29.44-8.96s-23.040 2.56-29.44 8.96c-7.68 6.4-12.8 16.64-14.080 29.44l-39.68-3.84c2.56-23.040 11.52-39.68 24.32-52.48 14.080-11.52 33.28-17.92 58.88-17.92 17.92 0 32 2.56 44.8 7.68 11.52 5.12 20.48 12.8 28.16 23.040 6.4 10.24 10.24 21.76 10.24 33.28 0 12.8-2.56 24.32-7.68 32-5.12 8.96-12.8 15.36-23.040 20.48-8.96 5.12-24.32 10.24-44.8 14.080-20.48 5.12-32 8.96-38.4 14.080-3.84 3.84-6.4 7.68-6.4 12.8s2.56 8.96 6.4 12.8c6.4 5.12 16.64 7.68 28.16 7.68s20.48-2.56 25.6-6.4c6.4-5.12 8.96-11.52 11.52-23.040l40.96 1.28c-1.28 19.2-7.68 33.28-20.48 44.8s-32 16.64-57.6 16.64c-15.36 0-29.44-2.56-39.68-7.68-11.52-5.12-19.2-11.52-25.6-20.48s-8.96-19.2-8.96-29.44c0-16.64 6.4-29.44 19.2-40.96 8.96-7.68 24.32-14.080 46.080-20.48 16.64-3.84 28.16-7.68 33.28-8.96 7.68-2.56 11.52-5.12 15.36-8.96 2.56-3.84 3.84-7.68 3.84-12.8-2.56-5.12-5.12-11.52-11.52-16.64z" />
<glyph unicode="&#xe933;" glyph-name="help-circle" d="M513.28 960c-282.88 0-513.28-229.12-513.28-512 1.28-284.16 226.56-510.72 509.44-512 285.44-1.28 512 225.28 514.56 510.72 1.28 282.88-229.12 513.28-510.72 513.28zM512-15.36c-256 0-463.36 207.36-463.36 463.36s207.36 463.36 464.64 463.36c254.72 0 462.080-208.64 462.080-463.36 0-257.28-207.36-463.36-463.36-463.36zM590.080 724.48c-40.96 12.8-83.2 14.080-126.72 7.68-40.96-7.68-76.8-25.6-104.96-57.6-24.32-26.88-37.12-57.6-40.96-92.16 0-5.12 0-5.12 5.12-5.12 29.44-3.84 57.6-7.68 87.040-11.52 2.56 0 2.56 0 3.84 2.56 2.56 10.24 5.12 19.2 8.96 28.16 11.52 25.6 29.44 44.8 56.32 55.040 17.92 6.4 35.84 7.68 55.040 5.12 15.36-1.28 28.16-6.4 40.96-15.36 39.68-28.16 39.68-78.080 7.68-106.24-10.24-8.96-20.48-17.92-30.72-26.88-17.92-14.080-35.84-29.44-51.2-46.080-21.76-21.76-33.28-48.64-37.12-79.36-1.28-16.64-1.28-34.56-1.28-51.2 0-2.56 1.28-2.56 2.56-2.56 14.080 0 29.44 0 43.52 0s29.44 0 43.52 0c2.56 0 3.84 1.28 3.84 3.84 0 7.68 0 16.64 0 24.32 1.28 20.48 7.68 38.4 23.040 52.48 11.52 11.52 24.32 21.76 37.12 33.28 21.76 19.2 43.52 37.12 61.44 60.16 33.28 40.96 38.4 96 11.52 142.080-21.76 39.68-56.32 65.28-98.56 79.36zM552.96 294.4c-29.44 0-58.88 0-88.32 0-2.56 0-2.56-1.28-2.56-2.56 0-32 0-65.28 0-97.28 0-2.56 1.28-2.56 2.56-2.56 29.44 0 58.88 0 88.32 0 2.56 0 2.56 1.28 2.56 2.56 0 16.64 0 32 0 48.64s0 32 0 48.64c0 1.28 0 2.56-2.56 2.56z" />
<glyph unicode="&#xe934;" glyph-name="mail-envelope" d="M921.6 870.4c56.554 0 102.4-45.846 102.4-102.4v0-614.4c0-56.554-45.846-102.4-102.4-102.4v0h-819.2c-56.554 0-102.4 45.846-102.4 102.4v0 614.4c0 56.32 46.080 102.4 102.4 102.4h819.2zM697.856 404.48l326.144-250.88v102.4l-262.144 199.68 262.144 209.92v102.4l-512-409.6-512 409.6v-102.4l262.144-209.92-262.144-199.68v-102.4l326.144 250.88 185.856-148.48 185.856 148.48z" />
<glyph unicode="&#xe935;" glyph-name="track-icon" d="M520.832 779.008c-2.621 1.082-5.664 1.711-8.853 1.711s-6.233-0.628-9.012-1.768l0.158 0.057-283.861-113.536 114.347-45.696 292.779 117.035-105.557 42.197zM690.389 711.168l-292.736-117.035 114.347-45.696 292.736 117.035zM844.971 630.101l-309.205-123.733v-376.832l309.205 123.733v377.003zM488.192 129.749v376.917l-309.205 123.733v-376.96zM485.589 823.040c7.833 3.218 16.925 5.086 26.453 5.086s18.62-1.868 26.93-5.258l-0.477 0.172 339.115-135.68c8.825-3.602 14.931-12.117 14.933-22.058v0-411.861c0-0.001 0-0.003 0-0.005 0-19.895-12.212-36.938-29.549-44.040l-0.317-0.115-341.76-136.533c-2.621-1.082-5.664-1.711-8.853-1.711s-6.233 0.628-9.012 1.768l0.158-0.057-341.888 136.533c-17.654 7.218-29.867 24.26-29.867 44.155 0 0.002 0 0.003 0 0.005v0 412.032c0.002 9.942 6.108 18.457 14.775 22.001l0.159 0.057z" />
<glyph unicode="&#xe936;" glyph-name="text-view" d="M506.88 442.88v10.24h10.24v-10.24zM-230.4 967.68v-148.48h1484.8v148.48zM-230.4 522.24v-148.48h1484.8v148.48zM-230.4 76.8v-148.48h1484.8v148.48z" />
<glyph unicode="&#xe937;" glyph-name="see-more" d="M768 960h-512c-70.692 0-128-57.308-128-128v0-768c0-70.692 57.308-128 128-128v0h512c70.692 0 128 57.308 128 128v0 768c0 70.692-57.308 128-128 128v0zM544 576v-96h96c17.673 0 32-14.327 32-32s-14.327-32-32-32v0h-96v-96c0-17.673-14.327-32-32-32s-32 14.327-32 32v0 96h-96c-17.673 0-32 14.327-32 32s14.327 32 32 32v0h96v96c0 17.673 14.327 32 32 32s32-14.327 32-32v0z" />
<glyph unicode="&#xe954;" glyph-name="printer" d="M256 896h512v-128h-512v128zM960 704h-896c-35.2 0-64-28.8-64-64v-320c0-35.2 28.794-64 64-64h192v-256h512v256h192c35.2 0 64 28.8 64 64v320c0 35.2-28.8 64-64 64zM128 512c-35.346 0-64 28.654-64 64s28.654 64 64 64 64-28.654 64-64-28.652-64-64-64zM704 64h-384v320h384v-320z" />
</font>
</defs>
</svg>
